<svg width="221" height="40" viewBox="0 0 221 40" fill="none" xmlns="http://www.w3.org/2000/svg">
<path d="M0.445136 39V0.964555H16.0397C18.684 0.964555 20.9118 1.38113 22.723 2.21429C24.5342 3.04745 25.8927 4.20662 26.7983 5.69182C27.7401 7.14079 28.211 8.82521 28.211 10.7451C28.211 12.665 27.7944 14.277 26.9613 15.581C26.1281 16.8851 25.0233 17.8994 23.6468 18.6239C22.3065 19.3121 20.8394 19.7106 19.2455 19.8193L20.0606 19.2216C21.7993 19.294 23.3389 19.7649 24.6791 20.6343C26.0557 21.4675 27.1243 22.5904 27.885 24.0032C28.6819 25.4159 29.0804 26.9554 29.0804 28.6218C29.0804 30.6503 28.5914 32.4434 27.6133 34.0011C26.6715 35.5587 25.2587 36.7903 23.3751 37.6959C21.5276 38.5653 19.2636 39 16.583 39H0.445136ZM7.78054 33.023H15.3876C17.38 33.023 18.9195 32.5702 20.0062 31.6646C21.0929 30.759 21.6363 29.4549 21.6363 27.7524C21.6363 26.0498 21.0748 24.7277 19.9519 23.7858C18.8289 22.8078 17.2713 22.3187 15.279 22.3187H7.78054V33.023ZM7.78054 16.8308H14.8443C16.7642 16.8308 18.2312 16.3961 19.2455 15.5267C20.2598 14.6573 20.7669 13.4257 20.7669 11.8318C20.7669 10.2742 20.2598 9.06067 19.2455 8.19129C18.2312 7.28569 16.746 6.83288 14.7899 6.83288H7.78054V16.8308ZM40.0326 39.652C37.8953 39.652 36.1203 39.2898 34.7076 38.5653C33.3311 37.8408 32.3168 36.8628 31.6648 35.6311C31.0127 34.3995 30.6867 33.0411 30.6867 31.5559C30.6867 29.8896 31.1033 28.4225 31.9364 27.1547C32.8058 25.8868 34.1099 24.9088 35.8487 24.2205C37.5874 23.496 39.779 23.1338 42.4234 23.1338H49.2154C49.2154 21.7935 49.0162 20.6887 48.6177 19.8193C48.2555 18.9499 47.6759 18.2979 46.8789 17.8632C46.1182 17.4285 45.1402 17.2111 43.9448 17.2111C42.532 17.2111 41.3185 17.5371 40.3042 18.1892C39.3262 18.805 38.7104 19.783 38.4568 21.1233H31.3387C31.5561 19.131 32.2081 17.4104 33.2949 15.9614C34.4178 14.5124 35.8849 13.3895 37.6961 12.5925C39.5435 11.7956 41.6264 11.3971 43.9448 11.3971C46.5529 11.3971 48.7988 11.8318 50.6825 12.7012C52.5661 13.5344 54.0151 14.7841 55.0294 16.4504C56.0437 18.0805 56.5508 20.0728 56.5508 22.4274V39H50.4651L49.7044 34.8161H49.4871C48.9075 35.613 48.2736 36.3194 47.5853 36.9352C46.9333 37.551 46.2088 38.0582 45.4119 38.4566C44.6149 38.8551 43.7637 39.1449 42.858 39.326C41.9524 39.5434 41.0106 39.652 40.0326 39.652ZM42.4234 34.0011C43.4376 34.0011 44.307 33.838 45.0315 33.512C45.7922 33.1498 46.4442 32.6789 46.9876 32.0993C47.531 31.5197 47.9476 30.8495 48.2373 30.0888C48.5634 29.2919 48.7807 28.4769 48.8894 27.6437H43.2384C42.1155 27.6437 41.1917 27.7886 40.4672 28.0784C39.779 28.332 39.2718 28.7123 38.9458 29.2195C38.6198 29.6904 38.4568 30.2518 38.4568 30.9039C38.4568 31.5559 38.6198 32.1174 38.9458 32.5883C39.2718 33.0592 39.7428 33.4215 40.3586 33.675C40.9744 33.8924 41.6626 34.0011 42.4234 34.0011ZM58.9968 39V12.0492H65.2455L65.8975 16.4504H66.1149C66.9842 14.8565 68.1615 13.6249 69.6467 12.7555C71.1319 11.8499 72.9975 11.3971 75.2434 11.3971C77.4893 11.3971 79.391 11.8862 80.9487 12.8642C82.5063 13.806 83.6836 15.2007 84.4805 17.0481C85.3137 18.8956 85.7303 21.1777 85.7303 23.8945V39H78.3949V24.5465C78.3949 22.3006 77.9421 20.58 77.0365 19.3846C76.1309 18.1892 74.7 17.5915 72.7439 17.5915C71.5123 17.5915 70.4074 17.8994 69.4294 18.5152C68.4513 19.0948 67.6906 19.9461 67.1472 21.069C66.6039 22.1557 66.3322 23.496 66.3322 25.0899V39H58.9968ZM101.563 39.652C98.7012 39.652 96.2018 39.0543 94.0645 37.8589C91.9635 36.6273 90.3153 34.961 89.1199 32.86C87.9608 30.7228 87.3812 28.2776 87.3812 25.5246C87.3812 22.7715 87.9789 20.3445 89.1743 18.2435C90.3697 16.1063 92.036 14.44 94.1732 13.2446C96.3104 12.0129 98.7737 11.3971 101.563 11.3971C105.04 11.3971 107.957 12.3027 110.311 14.114C112.702 15.9252 114.223 18.4246 114.875 21.6124H107.105C106.815 20.3083 106.145 19.294 105.095 18.5695C104.081 17.845 102.885 17.4828 101.509 17.4828C100.241 17.4828 99.0997 17.8088 98.0854 18.4609C97.1074 19.0767 96.3286 19.9823 95.749 21.1777C95.1694 22.3731 94.8796 23.822 94.8796 25.5246C94.8796 26.7562 95.0426 27.861 95.3686 28.8391C95.6946 29.8172 96.1474 30.6503 96.727 31.3386C97.3066 32.0268 97.9949 32.5521 98.7918 32.9143C99.625 33.2403 100.531 33.4034 101.509 33.4034C102.45 33.4034 103.302 33.2585 104.062 32.9687C104.823 32.6426 105.475 32.1898 106.019 31.6103C106.562 30.9944 106.924 30.27 107.105 29.4368H114.875C114.223 32.5521 112.702 35.0334 110.311 36.8809C107.957 38.7283 105.04 39.652 101.563 39.652ZM125.561 39.652C123.424 39.652 121.649 39.2898 120.236 38.5653C118.86 37.8408 117.846 36.8628 117.194 35.6311C116.542 34.3995 116.216 33.0411 116.216 31.5559C116.216 29.8896 116.632 28.4225 117.465 27.1547C118.335 25.8868 119.639 24.9088 121.377 24.2205C123.116 23.496 125.308 23.1338 127.952 23.1338H134.744C134.744 21.7935 134.545 20.6887 134.147 19.8193C133.784 18.9499 133.205 18.2979 132.408 17.8632C131.647 17.4285 130.669 17.2111 129.474 17.2111C128.061 17.2111 126.847 17.5371 125.833 18.1892C124.855 18.805 124.239 19.783 123.986 21.1233H116.868C117.085 19.131 117.737 17.4104 118.824 15.9614C119.947 14.5124 121.414 13.3895 123.225 12.5925C125.072 11.7956 127.155 11.3971 129.474 11.3971C132.082 11.3971 134.328 11.8318 136.211 12.7012C138.095 13.5344 139.544 14.7841 140.558 16.4504C141.572 18.0805 142.08 20.0728 142.08 22.4274V39H135.994L135.233 34.8161H135.016C134.436 35.613 133.802 36.3194 133.114 36.9352C132.462 37.551 131.738 38.0582 130.941 38.4566C130.144 38.8551 129.292 39.1449 128.387 39.326C127.481 39.5434 126.539 39.652 125.561 39.652ZM127.952 34.0011C128.966 34.0011 129.836 33.838 130.56 33.512C131.321 33.1498 131.973 32.6789 132.516 32.0993C133.06 31.5197 133.476 30.8495 133.766 30.0888C134.092 29.2919 134.31 28.4769 134.418 27.6437H128.767C127.644 27.6437 126.721 27.7886 125.996 28.0784C125.308 28.332 124.801 28.7123 124.475 29.2195C124.149 29.6904 123.986 30.2518 123.986 30.9039C123.986 31.5559 124.149 32.1174 124.475 32.5883C124.801 33.0592 125.272 33.4215 125.887 33.675C126.503 33.8924 127.191 34.0011 127.952 34.0011Z" fill="#1E1E1E"/>
<path d="M144.797 39V0.964555H160.392C163.036 0.964555 165.264 1.38113 167.075 2.21429C168.886 3.04745 170.245 4.20662 171.15 5.69182C172.092 7.14079 172.563 8.82521 172.563 10.7451C172.563 12.665 172.147 14.277 171.313 15.581C170.48 16.8851 169.375 17.8994 167.999 18.6239C166.659 19.3121 165.192 19.7106 163.598 19.8193L164.413 19.2216C166.151 19.294 167.691 19.7649 169.031 20.6343C170.408 21.4675 171.476 22.5904 172.237 24.0032C173.034 25.4159 173.433 26.9554 173.433 28.6218C173.433 30.6503 172.944 32.4434 171.965 34.0011C171.024 35.5587 169.611 36.7903 167.727 37.6959C165.88 38.5653 163.616 39 160.935 39H144.797ZM152.133 33.023H159.74C161.732 33.023 163.272 32.5702 164.358 31.6646C165.445 30.759 165.988 29.4549 165.988 27.7524C165.988 26.0498 165.427 24.7277 164.304 23.7858C163.181 22.8078 161.623 22.3187 159.631 22.3187H152.133V33.023ZM152.133 16.8308H159.196C161.116 16.8308 162.583 16.3961 163.598 15.5267C164.612 14.6573 165.119 13.4257 165.119 11.8318C165.119 10.2742 164.612 9.06067 163.598 8.19129C162.583 7.28569 161.098 6.83288 159.142 6.83288H152.133V16.8308ZM188.623 39.652C186.015 39.652 183.66 39.0543 181.559 37.8589C179.458 36.6635 177.792 34.9972 176.56 32.86C175.365 30.7228 174.767 28.2776 174.767 25.5246C174.767 22.7353 175.383 20.2902 176.615 18.1892C177.846 16.0519 179.513 14.3856 181.614 13.1902C183.715 11.9948 186.051 11.3971 188.623 11.3971C191.231 11.3971 193.586 11.9948 195.687 13.1902C197.788 14.3856 199.436 16.0519 200.631 18.1892C201.863 20.2902 202.479 22.7353 202.479 25.5246C202.479 28.3139 201.863 30.7771 200.631 32.9143C199.4 35.0153 197.733 36.6635 195.632 37.8589C193.568 39.0543 191.231 39.652 188.623 39.652ZM188.569 33.4577C189.764 33.4577 190.833 33.1679 191.774 32.5883C192.752 32.0087 193.531 31.1393 194.111 29.9802C194.69 28.7848 194.98 27.2996 194.98 25.5246C194.98 23.7496 194.69 22.2825 194.111 21.1233C193.531 19.9279 192.752 19.0404 191.774 18.4609C190.833 17.8813 189.8 17.5915 188.677 17.5915C187.518 17.5915 186.449 17.8813 185.471 18.4609C184.493 19.0404 183.715 19.9279 183.135 21.1233C182.555 22.2825 182.266 23.7496 182.266 25.5246C182.266 27.2996 182.555 28.7848 183.135 29.9802C183.715 31.1393 184.475 32.0087 185.417 32.5883C186.395 33.1679 187.446 33.4577 188.569 33.4577ZM215.576 39C213.656 39 211.972 38.7102 210.523 38.1306C209.11 37.5148 208.005 36.5186 207.208 35.1421C206.411 33.7294 206.013 31.8095 206.013 29.3825V17.9175H201.394V12.0492H206.013L206.828 4.71376H213.348V12.0492H220.52V17.9175H213.348V29.4911C213.348 30.7952 213.62 31.7008 214.163 32.208C214.707 32.6789 215.63 32.9143 216.934 32.9143H220.357V39H215.576Z" fill="white"/>
</svg>
