<svg width="299" height="53" viewBox="0 0 299 53" fill="none" xmlns="http://www.w3.org/2000/svg">
<path d="M0.312136 52V0.477883H21.4362C25.0182 0.477883 28.0359 1.04217 30.4894 2.17075C32.9428 3.29933 34.7829 4.86953 36.0096 6.88135C37.2854 8.84409 37.9233 11.1258 37.9233 13.7264C37.9233 16.3271 37.359 18.5106 36.2304 20.2771C35.1018 22.0436 33.6052 23.4175 31.7406 24.3989C29.9251 25.3312 27.9378 25.8709 25.7788 26.0181L26.8828 25.2085C29.2381 25.3066 31.3235 25.9445 33.1391 27.1222C35.0037 28.2508 36.4512 29.7719 37.4817 31.6856C38.5612 33.5992 39.1009 35.6847 39.1009 37.9418C39.1009 40.6897 38.4385 43.1186 37.1136 45.2285C35.8379 47.3385 33.9242 49.0068 31.3726 50.2335C28.8701 51.4112 25.8033 52 22.1722 52H0.312136ZM10.2485 43.9037H20.553C23.2517 43.9037 25.3372 43.2903 26.8092 42.0636C28.2813 40.8369 29.0173 39.0704 29.0173 36.7642C29.0173 34.4579 28.2568 32.6669 26.7356 31.3912C25.2145 30.0663 23.1045 29.4039 20.4058 29.4039H10.2485V43.9037ZM10.2485 21.97H19.8169C22.4176 21.97 24.4049 21.3811 25.7788 20.2035C27.1527 19.0258 27.8397 17.3575 27.8397 15.1985C27.8397 13.0885 27.1527 11.4447 25.7788 10.2671C24.4049 9.04037 22.393 8.42701 19.7433 8.42701H10.2485V21.97ZM53.9365 52.8832C51.0415 52.8832 48.6371 52.3925 46.7234 51.4112C44.8588 50.4298 43.4849 49.1049 42.6017 47.4366C41.7184 45.7683 41.2768 43.9282 41.2768 41.9164C41.2768 39.6592 41.8411 37.6719 42.9697 35.9545C44.1473 34.2371 45.9138 32.9123 48.2691 31.98C50.6244 30.9986 53.5931 30.5079 57.1751 30.5079H66.3754C66.3754 28.6924 66.1056 27.1958 65.5658 26.0181C65.0751 24.8405 64.29 23.9572 63.2105 23.3684C62.1801 22.7796 60.8552 22.4852 59.236 22.4852C57.3223 22.4852 55.6785 22.9268 54.3046 23.81C52.9797 24.6442 52.1455 25.9691 51.802 27.7846H42.1601C42.4545 25.0858 43.3377 22.7551 44.8098 20.7923C46.3309 18.8296 48.3182 17.3084 50.7716 16.2289C53.2741 15.1494 56.0956 14.6097 59.236 14.6097C62.7689 14.6097 65.8112 15.1985 68.3627 16.3761C70.9143 17.5047 72.877 19.1976 74.251 21.4547C75.6249 23.6628 76.3119 26.3616 76.3119 29.5511V52H68.0683L67.0379 46.3326H66.7435C65.9584 47.4121 65.0997 48.3689 64.1674 49.2031C63.2841 50.0373 62.3027 50.7242 61.2232 51.264C60.1437 51.8037 58.9906 52.1963 57.7639 52.4416C56.5372 52.736 55.2614 52.8832 53.9365 52.8832ZM57.1751 45.2285C58.549 45.2285 59.7266 45.0077 60.708 44.5661C61.7385 44.0754 62.6217 43.4375 63.3577 42.6524C64.0938 41.8673 64.658 40.9595 65.0506 39.9291C65.4922 38.8496 65.7866 37.7455 65.9338 36.617H58.2791C56.758 36.617 55.5067 36.8132 54.5254 37.2058C53.5931 37.5493 52.9061 38.0645 52.4645 38.7515C52.0229 39.3893 51.802 40.1499 51.802 41.0331C51.802 41.9164 52.0229 42.677 52.4645 43.3148C52.9061 43.9527 53.544 44.4434 54.3782 44.7869C55.2123 45.0813 56.1446 45.2285 57.1751 45.2285ZM79.6251 52V15.4929H88.0895L88.9727 21.4547H89.2671C90.4448 19.2957 92.0395 17.6274 94.0513 16.4497C96.0632 15.223 98.5902 14.6097 101.632 14.6097C104.675 14.6097 107.251 15.2721 109.361 16.5969C111.471 17.8727 113.065 19.7619 114.145 22.2644C115.274 24.7669 115.838 27.8582 115.838 31.5384V52H105.901V32.4216C105.901 29.3793 105.288 27.0486 104.061 25.4293C102.835 23.81 100.896 23.0004 98.2467 23.0004C96.5784 23.0004 95.0818 23.4175 93.7569 24.2517C92.4321 25.0368 91.4016 26.1899 90.6656 27.711C89.9296 29.1831 89.5616 30.9986 89.5616 33.1576V52H79.6251ZM137.284 52.8832C133.408 52.8832 130.022 52.0736 127.127 50.4543C124.281 48.786 122.049 46.5288 120.429 43.6829C118.859 40.7878 118.074 37.4757 118.074 33.7465C118.074 30.0172 118.884 26.7296 120.503 23.8836C122.122 20.9886 124.379 18.7314 127.274 17.1122C130.17 15.4438 133.506 14.6097 137.284 14.6097C141.995 14.6097 145.945 15.8364 149.135 18.2898C152.373 20.7432 154.434 24.129 155.317 28.447H144.792C144.399 26.6806 143.492 25.3066 142.069 24.3253C140.695 23.3439 139.075 22.8532 137.211 22.8532C135.493 22.8532 133.948 23.2948 132.574 24.1781C131.249 25.0122 130.194 26.2389 129.409 27.8582C128.624 29.4775 128.231 31.4402 128.231 33.7465C128.231 35.4148 128.452 36.9114 128.894 38.2362C129.335 39.5611 129.949 40.6897 130.734 41.622C131.519 42.5543 132.451 43.2658 133.531 43.7565C134.659 44.1981 135.886 44.4189 137.211 44.4189C138.487 44.4189 139.64 44.2226 140.67 43.8301C141.701 43.3884 142.584 42.7751 143.32 41.99C144.056 41.1558 144.547 40.1744 144.792 39.0459H155.317C154.434 43.2658 152.373 46.627 149.135 49.1295C145.945 51.632 141.995 52.8832 137.284 52.8832ZM169.792 52.8832C166.897 52.8832 164.493 52.3925 162.579 51.4112C160.715 50.4298 159.341 49.1049 158.457 47.4366C157.574 45.7683 157.133 43.9282 157.133 41.9164C157.133 39.6592 157.697 37.6719 158.825 35.9545C160.003 34.2371 161.77 32.9123 164.125 31.98C166.48 30.9986 169.449 30.5079 173.031 30.5079H182.231C182.231 28.6924 181.961 27.1958 181.422 26.0181C180.931 24.8405 180.146 23.9572 179.066 23.3684C178.036 22.7796 176.711 22.4852 175.092 22.4852C173.178 22.4852 171.534 22.9268 170.16 23.81C168.835 24.6442 168.001 25.9691 167.658 27.7846H158.016C158.31 25.0858 159.193 22.7551 160.666 20.7923C162.187 18.8296 164.174 17.3084 166.627 16.2289C169.13 15.1494 171.951 14.6097 175.092 14.6097C178.625 14.6097 181.667 15.1985 184.218 16.3761C186.77 17.5047 188.733 19.1976 190.107 21.4547C191.481 23.6628 192.168 26.3616 192.168 29.5511V52H183.924L182.894 46.3326H182.599C181.814 47.4121 180.955 48.3689 180.023 49.2031C179.14 50.0373 178.159 50.7242 177.079 51.264C175.999 51.8037 174.846 52.1963 173.62 52.4416C172.393 52.736 171.117 52.8832 169.792 52.8832ZM173.031 45.2285C174.405 45.2285 175.582 45.0077 176.564 44.5661C177.594 44.0754 178.477 43.4375 179.213 42.6524C179.95 41.8673 180.514 40.9595 180.906 39.9291C181.348 38.8496 181.642 37.7455 181.79 36.617H174.135C172.614 36.617 171.362 36.8132 170.381 37.2058C169.449 37.5493 168.762 38.0645 168.32 38.7515C167.879 39.3893 167.658 40.1499 167.658 41.0331C167.658 41.9164 167.879 42.677 168.32 43.3148C168.762 43.9527 169.4 44.4434 170.234 44.7869C171.068 45.0813 172 45.2285 173.031 45.2285Z" fill="#1E1E1E"/>
<path d="M195.849 52V0.477883H216.973C220.555 0.477883 223.573 1.04217 226.026 2.17075C228.48 3.29933 230.32 4.86953 231.546 6.88135C232.822 8.84409 233.46 11.1258 233.46 13.7264C233.46 16.3271 232.896 18.5106 231.767 20.2771C230.639 22.0436 229.142 23.4175 227.277 24.3989C225.462 25.3312 223.475 25.8709 221.316 26.0181L222.42 25.2085C224.775 25.3066 226.86 25.9445 228.676 27.1222C230.54 28.2508 231.988 29.7719 233.018 31.6856C234.098 33.5992 234.638 35.6847 234.638 37.9418C234.638 40.6897 233.975 43.1186 232.65 45.2285C231.375 47.3385 229.461 49.0068 226.909 50.2335C224.407 51.4112 221.34 52 217.709 52H195.849ZM205.785 43.9037H216.09C218.789 43.9037 220.874 43.2903 222.346 42.0636C223.818 40.8369 224.554 39.0704 224.554 36.7642C224.554 34.4579 223.794 32.6669 222.272 31.3912C220.751 30.0663 218.641 29.4039 215.943 29.4039H205.785V43.9037ZM205.785 21.97H215.354C217.954 21.97 219.942 21.3811 221.316 20.2035C222.689 19.0258 223.376 17.3575 223.376 15.1985C223.376 13.0885 222.689 11.4447 221.316 10.2671C219.942 9.04037 217.93 8.42701 215.28 8.42701H205.785V21.97ZM255.214 52.8832C251.681 52.8832 248.492 52.0736 245.646 50.4543C242.8 48.8351 240.543 46.5779 238.874 43.6829C237.255 40.7878 236.446 37.4757 236.446 33.7465C236.446 29.9682 237.28 26.656 238.948 23.81C240.616 20.915 242.874 18.6578 245.72 17.0386C248.566 15.4193 251.73 14.6097 255.214 14.6097C258.747 14.6097 261.937 15.4193 264.783 17.0386C267.629 18.6578 269.861 20.915 271.481 23.81C273.149 26.656 273.983 29.9682 273.983 33.7465C273.983 37.5247 273.149 40.8614 271.481 43.7565C269.812 46.6024 267.555 48.8351 264.709 50.4543C261.912 52.0736 258.747 52.8832 255.214 52.8832ZM255.141 44.4925C256.76 44.4925 258.208 44.0999 259.483 43.3148C260.808 42.5297 261.863 41.3521 262.648 39.7819C263.433 38.1626 263.826 36.1508 263.826 33.7465C263.826 31.3421 263.433 29.3548 262.648 27.7846C261.863 26.1653 260.808 24.9632 259.483 24.1781C258.208 23.393 256.809 23.0004 255.288 23.0004C253.718 23.0004 252.27 23.393 250.945 24.1781C249.621 24.9632 248.566 26.1653 247.78 27.7846C246.995 29.3548 246.603 31.3421 246.603 33.7465C246.603 36.1508 246.995 38.1626 247.78 39.7819C248.566 41.3521 249.596 42.5297 250.872 43.3148C252.197 44.0999 253.62 44.4925 255.141 44.4925ZM291.724 52C289.124 52 286.842 51.6075 284.879 50.8224C282.966 49.9882 281.469 48.6388 280.389 46.7742C279.31 44.8605 278.77 42.2599 278.77 38.9723V23.442H272.514V15.4929H278.77L279.874 5.55649H288.707V15.4929H298.422V23.442H288.707V39.1195C288.707 40.8859 289.075 42.1127 289.811 42.7996C290.547 43.4375 291.798 43.7565 293.564 43.7565H298.201V52H291.724Z" fill="#00CE93"/>
</svg>
